<?xml version="1.0"?>
<svg xmlns="http://www.w3.org/2000/svg" xmlns:xlink="http://www.w3.org/1999/xlink" xmlns:svgjs="http://svgjs.com/svgjs" version="1.1" width="512" height="512" x="0" y="0" viewBox="0 0 386.434 386.434" style="enable-background:new 0 0 512 512" xml:space="preserve" class=""><g>
<path xmlns="http://www.w3.org/2000/svg" style="" d="M348.017,178.434h-310.4c-4.8,0-8.8,4-8.8,8.8l0,0v49.6c0,4.8,4,8.8,8.8,8.8h22.4v124  c0,4.8,4,8.8,8.8,8.8h248.8c4.8,0,8.8-4,8.8-8.8v-124h22.4c4.8,0,8.8-4,8.8-8.8v-50.4  C356.817,182.434,352.817,178.434,348.017,178.434z" fill="#ffffff" data-original="#ffd98d" class=""/>
<path xmlns="http://www.w3.org/2000/svg" style="" d="M122.417,68.834c-14.4,0-24.8-20.8-24.8-34.4c-0.8-13.6,9.6-24.8,23.2-25.6  c13.6-0.8,25.6,9.6,26.4,23.2c0,0.8,0,1.6,0,3.2C147.217,48.034,136.817,68.834,122.417,68.834z" fill="#ffffff" data-original="#ffffff" class=""/>
<path xmlns="http://www.w3.org/2000/svg" style="" d="M122.417,10.434c-3.2,0-7.2,0.8-10.4,2.4c8.8,4,14.4,12,14.4,21.6c-0.8,11.2-5.6,22.4-14.4,30.4  c3.2,2.4,6.4,4,10.4,4c14.4,0,24.8-20.8,24.8-34.4C146.417,20.834,136.017,10.434,122.417,10.434z" fill="#7ab5dc" data-original="#e5e5e5" class=""/>
<polygon xmlns="http://www.w3.org/2000/svg" style="" points="73.617,150.434 73.617,105.634 102.417,91.234 122.417,118.434 142.417,91.234   171.217,105.634 171.217,150.434 " fill="#7ab5dc" data-original="#ed7d45" class=""/>
<polygon xmlns="http://www.w3.org/2000/svg" style="" points="142.417,91.234 139.217,96.034 149.617,101.634 149.617,146.434 73.617,146.434   73.617,150.434 171.217,150.434 171.217,105.634 " fill="#7ab5dc" data-original="#dd603e" class=""/>
<path xmlns="http://www.w3.org/2000/svg" style="" d="M262.417,68.834c-14.4,0-24.8-20.8-24.8-34.4c-0.8-13.6,9.6-25.6,23.2-26.4  c13.6-0.8,25.6,9.6,26.4,23.2c0,0.8,0,1.6,0,3.2C287.217,48.034,276.817,68.834,262.417,68.834z" fill="#ffffff" data-original="#ffffff" class=""/>
<polygon xmlns="http://www.w3.org/2000/svg" style="" points="214.417,150.434 214.417,105.634 243.217,91.234 262.417,118.434 282.417,91.234   311.217,105.634 311.217,150.434 " fill="#7ab5dc" data-original="#ed7d45" class=""/>
<path xmlns="http://www.w3.org/2000/svg" style="" d="M262.417,10.434c-3.2,0-7.2,0.8-10.4,2.4c8.8,4,14.4,12,14.4,21.6c-0.8,11.2-5.6,22.4-14.4,30.4  c3.2,2.4,6.4,4,10.4,4c14.4,0,24.8-20.8,24.8-34.4S276.017,10.434,262.417,10.434z" fill="#7ab5dc" data-original="#e5e5e5" class=""/>
<polygon xmlns="http://www.w3.org/2000/svg" style="" points="282.417,91.234 279.217,96.034 290.417,101.634 290.417,146.434 214.417,146.434   214.417,150.434 311.217,150.434 311.217,105.634 " fill="#7ab5dc" data-original="#dd603e" class=""/>
<path xmlns="http://www.w3.org/2000/svg" style="" d="M115.217,231.234h155.2c4.8,0,8.8,4,8.8,8.8v76.8c0,4.8-4,8.8-8.8,8.8h-155.2c-4.8,0-8.8-4-8.8-8.8  v-76.8C106.417,235.234,110.417,231.234,115.217,231.234z" fill="#ffffff" data-original="#ffffff" class=""/>
<path xmlns="http://www.w3.org/2000/svg" style="" d="M250.417,325.634c-0.8,0-1.6-4-1.6-8.8v-76.8c0-4.8,0.8-8.8,1.6-8.8h27.2c0.8,0,1.6,4,1.6,8.8v76  c0,4.8-0.8,8.8-1.6,8.8L250.417,325.634z" fill="#7ab5dc" data-original="#e5e5e5" class=""/>
<path xmlns="http://www.w3.org/2000/svg" style="" d="M348.017,178.434h-60.8v200h30.4c4.8,0,8.8-4,8.8-8.8v-124h22.4c4.8,0,8.8-4,8.8-8.8v-50.4  C356.817,182.434,352.817,178.434,348.017,178.434z" fill="#7ab5dc" data-original="#f2bf81" class=""/>
<g xmlns="http://www.w3.org/2000/svg">
	<path style="" d="M73.617,158.434h96.8c4.8,0,8-3.2,8-8v-45.6c0-3.2-1.6-5.6-4-7.2l-28.8-14.4   c-3.2-1.6-8-0.8-10.4,2.4l-13.6,18.4l-13.6-18.4c-2.4-3.2-6.4-4-10.4-2.4l-27.2,15.2c-2.4,1.6-4,4-4,7.2v44.8   C65.617,155.234,69.617,158.434,73.617,158.434L73.617,158.434z M81.617,110.434l18.4-8.8l16,22.4c2.4,3.2,7.2,4,11.2,1.6   c0.8-0.8,1.6-0.8,1.6-1.6l16-22.4l18.4,8.8v32h-81.6V110.434z" fill="#2a395a" data-original="#281a10" class=""/>
	<path style="" d="M122.417,76.834c20,0,32.8-25.6,32.8-42.4c0.8-18.4-12.8-33.6-31.2-34.4   c-18.4-0.8-33.6,12.8-34.4,31.2c0,0.8,0,2.4,0,3.2C89.617,51.234,103.217,76.834,122.417,76.834z M122.417,18.434   c8.8,0,16.8,7.2,16.8,16c0,10.4-8.8,26.4-16.8,26.4s-16.8-15.2-16.8-26.4C106.417,25.634,113.617,18.434,122.417,18.434   L122.417,18.434z" fill="#2a395a" data-original="#281a10" class=""/>
	<path style="" d="M214.417,158.434h96.8c4.8,0,8-3.2,8-8v-45.6c0-3.2-1.6-5.6-4-7.2l-28.8-14.4   c-3.2-1.6-8-0.8-10.4,2.4l-13.6,18.4l-13.6-18.4c-2.4-3.2-6.4-4-10.4-2.4l-28,15.2c-2.4,1.6-4,4-4,7.2v44.8   C206.417,155.234,209.617,158.434,214.417,158.434L214.417,158.434z M222.417,110.434l18.4-8.8l16,22.4c2.4,3.2,7.2,4,11.2,1.6   c0.8-0.8,1.6-0.8,1.6-1.6l16-22.4l18.4,8.8v32h-81.6V110.434z" fill="#2a395a" data-original="#281a10" class=""/>
	<path style="" d="M262.417,76.834c20,0,32.8-25.6,32.8-42.4c0.8-18.4-12.8-33.6-31.2-34.4   c-18.4-0.8-33.6,12.8-34.4,31.2c0,0.8,0,2.4,0,3.2C230.417,51.234,243.217,76.834,262.417,76.834z M262.417,18.434   c8.8,0,16,7.2,16.8,16c0,10.4-8.8,26.4-16.8,26.4c-8,0-16.8-15.2-16.8-26.4C246.417,25.634,253.617,18.434,262.417,18.434   L262.417,18.434z" fill="#2a395a" data-original="#281a10" class=""/>
	<path style="" d="M348.017,170.434h-310.4c-9.6,0-16.8,7.2-16.8,16.8l0,0v49.6c0,9.6,7.2,16.8,16.8,16.8h14.4v116   c0,9.6,7.2,16.8,16.8,16.8h248.8c9.6,0,16.8-7.2,16.8-16.8v-116h14.4c9.6,0,16.8-7.2,16.8-16.8v-50.4   C364.817,177.634,357.617,170.434,348.017,170.434z M348.817,236.834C348.817,237.634,348.817,237.634,348.817,236.834l-23.2,0.8   c-4.8,0-8,3.2-8,8v124c0,0.8,0,0.8-0.8,0.8h-248.8c-0.8,0-0.8,0-0.8-0.8v-124c0-4.8-3.2-8-8-8h-22.4c-0.8,0-0.8,0-0.8-0.8v-50.4   c0-0.8,0-0.8,0.8-0.8l0,0h310.4c0.8,0,0.8,0,0.8,0.8v50.4H348.817z" fill="#2a395a" data-original="#281a10" class=""/>
	<path style="" d="M270.417,223.234h-155.2c-9.6,0-16.8,7.2-16.8,16.8v76c0,9.6,7.2,16.8,16.8,16.8h155.2   c9.6,0,16.8-7.2,16.8-16.8v-76C287.217,231.234,279.217,223.234,270.417,223.234z M271.217,316.834   C271.217,316.834,270.417,317.634,271.217,316.834l-156,0.8c-0.8,0-0.8,0-0.8-0.8v-76.8c0-0.8,0-0.8,0.8-0.8h155.2   c0.8,0,0.8,0,0.8,0.8L271.217,316.834L271.217,316.834z" fill="#2a395a" data-original="#281a10" class=""/>
</g>
<g xmlns="http://www.w3.org/2000/svg">
</g>
<g xmlns="http://www.w3.org/2000/svg">
</g>
<g xmlns="http://www.w3.org/2000/svg">
</g>
<g xmlns="http://www.w3.org/2000/svg">
</g>
<g xmlns="http://www.w3.org/2000/svg">
</g>
<g xmlns="http://www.w3.org/2000/svg">
</g>
<g xmlns="http://www.w3.org/2000/svg">
</g>
<g xmlns="http://www.w3.org/2000/svg">
</g>
<g xmlns="http://www.w3.org/2000/svg">
</g>
<g xmlns="http://www.w3.org/2000/svg">
</g>
<g xmlns="http://www.w3.org/2000/svg">
</g>
<g xmlns="http://www.w3.org/2000/svg">
</g>
<g xmlns="http://www.w3.org/2000/svg">
</g>
<g xmlns="http://www.w3.org/2000/svg">
</g>
<g xmlns="http://www.w3.org/2000/svg">
</g>
</g></svg>
