<?xml version="1.0"?>
<svg xmlns="http://www.w3.org/2000/svg" xmlns:xlink="http://www.w3.org/1999/xlink" xmlns:svgjs="http://svgjs.com/svgjs" version="1.1" width="512" height="512" x="0" y="0" viewBox="0 0 408.43 408.43" style="enable-background:new 0 0 512 512" xml:space="preserve" class=""><g>
<polygon xmlns="http://www.w3.org/2000/svg" style="" points="16,378.147 14.4,378.147 8,376.547 8,335.747 15.2,334.147 16.8,334.147 24.8,334.147   24.8,318.147 32,316.547 33.6,316.547 139.2,316.547 140.8,316.547 147.2,318.147 147.2,334.147 156,334.147 157.6,334.947   164,335.747 164,376.547 156.8,378.147 155.2,378.147 " fill="#ffffff" data-original="#ffd98d" class=""/>
<polygon xmlns="http://www.w3.org/2000/svg" style="" points="156,334.147 147.2,334.147 147.2,318.147 140.8,316.547 139.2,316.547 114.4,316.547   114.4,378.147 155.2,378.147 156.8,378.147 164,376.547 164,335.747 157.6,334.947 " fill="#7ab5dc" data-original="#f2bf81" class=""/>
<path xmlns="http://www.w3.org/2000/svg" style="" d="M252.8,130.947c-4,0-7.2-0.8-11.2-1.6l-2.4-0.8l-66.4-62.4l-0.8-2.4c-4-12-3.2-21.6,3.2-28  c4-4,10.4-6.4,16.8-6.4c15.2,0,36,10.4,52.8,26.4c12,10.4,20.8,23.2,26.4,38.4c4.8,12.8,4,23.2-2.4,29.6  C264.8,129.347,259.2,131.747,252.8,130.947L252.8,130.947z" fill="#ffffff" data-original="#ffffff"/>
<rect xmlns="http://www.w3.org/2000/svg" x="108.199" y="91.238" transform="matrix(-0.684 0.7294 -0.7294 -0.684 382.6106 115.9416)" style="" width="115.993" height="99.194" fill="#7ab5dc" data-original="#ed7d45" class=""/>
<path xmlns="http://www.w3.org/2000/svg" style="" d="M141.6,250.147c-16,0-36-10.4-52.8-26.4c-25.6-24-36.8-55.2-24-68c4-4,10.4-6.4,16-6.4  c4,0,7.2,0.8,11.2,1.6l2.4,0.8l66.4,62.4l0.8,2.4c4,12,3.2,21.6-3.2,28C153.6,247.747,147.2,250.147,141.6,250.147L141.6,250.147z" fill="#ffffff" data-original="#ffffff"/>
<path xmlns="http://www.w3.org/2000/svg" style="" d="M271.2,94.947c-4.8-11.2-11.2-21.6-20-31.2c1.6,3.2,3.2,6.4,4,9.6c4.8,12.8,4,23.2-2.4,29.6  c-4,4-10.4,6.4-16,6.4c-4,0-7.2-0.8-11.2-1.6l-2.4-0.8l-53.6-50.4c0,2.4,0.8,4.8,1.6,7.2l0.8,2.4l66.4,62.4l2.4,0.8  c4,0.8,7.2,1.6,11.2,1.6c5.6,0,12-1.6,16-6.4C275.2,118.947,276,107.747,271.2,94.947z" fill="#e5e5e5" data-original="#e5e5e5"/>
<polygon xmlns="http://www.w3.org/2000/svg" style="" points="223.2,114.147 147.2,195.747 94.4,145.347 90.4,149.347 162.4,216.547 242.4,131.747 " fill="#7ab5dc" data-original="#dd603e" class=""/>
<path xmlns="http://www.w3.org/2000/svg" style="" d="M160.8,215.747l-0.8-2.4l-13.6-11.2c1.6,7.2,0,15.2-4,20.8c-4,4-10.4,6.4-16,6.4l0,0  c-16,0-36-10.4-52.8-26.4c-2.4-2.4-4.8-4.8-6.4-7.2c5.6,10.4,13.6,20,22.4,28c16.8,16,37.6,26.4,52.8,26.4l0,0c6.4,0,12-1.6,16-6.4  C163.2,238.147,164,227.747,160.8,215.747z" fill="#e5e5e5" data-original="#e5e5e5"/>
<path xmlns="http://www.w3.org/2000/svg" style="" d="M363.2,358.947c-8,0-16.8-3.2-22.4-8.8l-154.4-158.4l32-34.4l168,143.2c13.6,12.8,14.4,33.6,1.6,47.2  C382.4,354.947,372.8,358.147,363.2,358.947L363.2,358.947z" fill="#ffffff" data-original="#ffd98d" class=""/>
<path xmlns="http://www.w3.org/2000/svg" style="" d="M388,322.147c-12.8,13.6-33.6,14.4-47.2,1.6l-142.4-145.6l-12,13.6l154.4,158.4  c13.6,12.8,34.4,12,47.2-0.8c9.6-9.6,12-24,6.4-36.8C392.8,315.747,390.4,318.947,388,322.147z" fill="#7ab5dc" data-original="#f2bf81" class=""/>
<g xmlns="http://www.w3.org/2000/svg">
	<path style="" d="M230.4,156.547l16.8-17.6c1.6,0,4,0.8,5.6,0.8c8,0.8,16.8-2.4,22.4-8.8c8-8.8,9.6-22.4,4-38.4   c-6.4-16-16-29.6-28-41.6c-29.6-28-64.8-36-80.8-19.2c-6.4,8-8.8,18.4-6.4,28.8l-76.8,82.4c-10.4-2.4-20.8,0.8-28,8   c-16,16.8-4.8,52,24.8,79.2c19.2,18.4,41.6,28,58.4,28c8,0,16-2.4,22.4-8.8c6.4-8,8.8-18.4,6.4-28.8l16.8-17.6l148.8,152.8   c15.2,16.8,41.6,17.6,58.4,2.4s17.6-41.6,2.4-58.4c-1.6-1.6-3.2-3.2-4.8-4L230.4,156.547z M180.8,42.947c8-8.8,34.4-1.6,58.4,20   c10.4,9.6,19.2,21.6,24.8,35.2c3.2,9.6,3.2,17.6-0.8,21.6c-5.6,4-13.6,4.8-20,2.4l-63.2-59.2   C176.8,55.747,177.6,48.547,180.8,42.947z M152,238.147c-8,8.8-34.4,1.6-58.4-20s-32-48-24-56.8c5.6-4,13.6-4.8,20-2.4l63.2,59.2   C156,224.547,155.2,232.547,152,238.147z M175.2,191.747l-12.8,13.6l-60.8-56.8l68.8-72.8l60.8,56.8l-34.4,36.8L175.2,191.747z    M382.4,342.947c-9.6,10.4-25.6,10.4-36,1.6l-148.8-152.8l21.6-23.2l161.6,138.4C391.2,316.547,391.2,332.547,382.4,342.947z" fill="#2a395a" data-original="#281a10" class=""/>
	<path style="" d="M155.2,326.147L155.2,326.147v-2.4c-0.8-8.8-8-15.2-16.8-15.2H33.6c-8.8,0-16,6.4-16.8,15.2v2.4h0   c-8.8-0.8-16,5.6-16.8,13.6l0,0v31.2c0.8,8.8,8,15.2,16,14.4l0,0h139.2c8.8,0.8,16-5.6,16.8-13.6l0,0v-31.2   C172,331.747,164,325.347,155.2,326.147C156,326.147,156,326.147,155.2,326.147z M156,370.147H16v-28h8.8c4.8,0,8-3.2,8-8v-9.6   h106.4v9.6c0,4.8,3.2,8,8,8h8.8V370.147z" fill="#2a395a" data-original="#281a10" class=""/>
</g>
<g xmlns="http://www.w3.org/2000/svg">
</g>
<g xmlns="http://www.w3.org/2000/svg">
</g>
<g xmlns="http://www.w3.org/2000/svg">
</g>
<g xmlns="http://www.w3.org/2000/svg">
</g>
<g xmlns="http://www.w3.org/2000/svg">
</g>
<g xmlns="http://www.w3.org/2000/svg">
</g>
<g xmlns="http://www.w3.org/2000/svg">
</g>
<g xmlns="http://www.w3.org/2000/svg">
</g>
<g xmlns="http://www.w3.org/2000/svg">
</g>
<g xmlns="http://www.w3.org/2000/svg">
</g>
<g xmlns="http://www.w3.org/2000/svg">
</g>
<g xmlns="http://www.w3.org/2000/svg">
</g>
<g xmlns="http://www.w3.org/2000/svg">
</g>
<g xmlns="http://www.w3.org/2000/svg">
</g>
<g xmlns="http://www.w3.org/2000/svg">
</g>
</g></svg>
